<svg width="617" height="132" viewBox="0 0 617 132" fill="none" xmlns="http://www.w3.org/2000/svg">
<path d="M40 31.2578H20V51.2578H40V31.2578Z" fill="#DD0707"/>
<path d="M60 31.2578H40V51.2578H60V31.2578Z" fill="#DD0707"/>
<path d="M80 31.2578H60V51.2578H80V31.2578Z" fill="#DD0707"/>
<path d="M20 51.2578H0V71.2578H20V51.2578Z" fill="#DDAB07"/>
<path d="M20 91.2578H0V111.258H20V91.2578Z" fill="#DD0707"/>
<path d="M40 111.258H20V131.258H40V111.258Z" fill="#DD0707"/>
<path d="M80 111.258H60V131.258H80V111.258Z" fill="#DD0707"/>
<path d="M40 71.2578H20V91.2578H40V71.2578Z" fill="#DDAB07"/>
<path d="M60 71.2578H40V91.2578H60V71.2578Z" fill="#DDAB07"/>
<path d="M613.196 79.0677L601.237 79.3873C601.113 78.5351 600.775 77.7805 600.225 77.1235C599.675 76.4488 598.956 75.925 598.068 75.5521C597.198 75.1615 596.186 74.9662 595.032 74.9662C593.522 74.9662 592.235 75.268 591.17 75.8717C590.122 76.4754 589.607 77.2922 589.625 78.322C589.607 79.121 589.927 79.8135 590.584 80.3994C591.258 80.9853 592.457 81.4559 594.179 81.811L602.063 83.3025C606.147 84.0837 609.183 85.3799 611.171 87.191C613.178 89.002 614.19 91.3991 614.208 94.382C614.19 97.1874 613.355 99.6288 611.704 101.706C610.071 103.784 607.833 105.399 604.992 106.553C602.152 107.69 598.902 108.258 595.245 108.258C589.403 108.258 584.795 107.06 581.422 104.663C578.066 102.248 576.148 99.0162 575.669 94.9679L588.533 94.6483C588.817 96.1398 589.554 97.2762 590.744 98.0574C591.933 98.8387 593.451 99.2293 595.298 99.2293C596.967 99.2293 598.325 98.9186 599.373 98.2971C600.42 97.6757 600.953 96.8501 600.971 95.8202C600.953 94.8969 600.545 94.1601 599.746 93.6096C598.947 93.0415 597.695 92.5976 595.99 92.278L588.853 90.9197C584.751 90.1739 581.697 88.7979 579.691 86.7915C577.684 84.7673 576.69 82.1927 576.708 79.0677C576.69 76.3334 577.418 73.9985 578.892 72.0631C580.365 70.11 582.461 68.6185 585.177 67.5887C587.894 66.5589 591.099 66.0439 594.792 66.0439C600.332 66.0439 604.7 67.2069 607.896 69.5329C611.092 71.8412 612.858 75.0194 613.196 79.0677Z" fill="#191B41"/>
<path d="M552.162 108.258C547.883 108.258 544.19 107.415 541.082 105.728C537.993 104.023 535.614 101.6 533.945 98.4569C532.293 95.2964 531.468 91.5411 531.468 87.191C531.468 82.9651 532.302 79.2719 533.971 76.1114C535.64 72.9331 537.993 70.4651 541.029 68.7073C544.065 66.9317 547.643 66.0439 551.763 66.0439C554.674 66.0439 557.338 66.4967 559.753 67.4023C562.167 68.3078 564.254 69.6483 566.011 71.4239C567.769 73.1995 569.136 75.3923 570.113 78.0024C571.09 80.5947 571.578 83.5688 571.578 86.9246V90.1739H536.022V82.61H559.46C559.442 81.2251 559.113 79.991 558.474 78.9079C557.835 77.8248 556.956 76.9814 555.837 76.3778C554.737 75.7563 553.467 75.4456 552.029 75.4456C550.573 75.4456 549.268 75.7741 548.114 76.431C546.96 77.0702 546.045 77.9491 545.37 79.0677C544.696 80.1686 544.341 81.4204 544.305 82.8231V90.5202C544.305 92.1892 544.634 93.654 545.291 94.9147C545.948 96.1576 546.88 97.1253 548.087 97.8177C549.294 98.5102 550.733 98.8564 552.402 98.8564C553.556 98.8564 554.603 98.6966 555.544 98.377C556.486 98.0574 557.293 97.5869 557.968 96.9655C558.643 96.344 559.149 95.5805 559.486 94.675L571.445 95.0212C570.948 97.7023 569.856 100.037 568.169 102.026C566.5 103.997 564.307 105.533 561.59 106.633C558.874 107.716 555.731 108.258 552.162 108.258Z" fill="#191B41"/>
<path d="M518.262 108.258C516.344 108.258 514.702 107.584 513.335 106.234C511.985 104.885 511.32 103.251 511.337 101.334C511.32 99.4515 511.985 97.8446 513.335 96.5129C514.702 95.1635 516.344 94.4888 518.262 94.4888C520.073 94.4888 521.671 95.1635 523.056 96.5129C524.459 97.8446 525.169 99.4515 525.187 101.334C525.169 102.612 524.832 103.775 524.175 104.823C523.535 105.87 522.692 106.705 521.644 107.326C520.615 107.948 519.487 108.258 518.262 108.258Z" fill="#191B41"/>
<path d="M503.415 69.595L487.471 70.0212C487.305 68.8848 486.855 67.8787 486.121 67.0027C485.387 66.1031 484.429 65.4047 483.245 64.9075C482.085 64.3867 480.735 64.1263 479.197 64.1263C477.184 64.1263 475.468 64.5287 474.048 65.3337C472.651 66.1386 471.964 67.2276 471.988 68.6007C471.964 69.6661 472.39 70.5894 473.266 71.3706C474.166 72.1519 475.764 72.7792 478.06 73.2527L488.572 75.2413C494.017 76.283 498.065 78.0112 500.717 80.426C503.392 82.8408 504.741 86.0368 504.765 90.0141C504.741 93.7546 503.628 97.0098 501.427 99.7797C499.249 102.55 496.266 104.704 492.478 106.243C488.69 107.758 484.358 108.516 479.481 108.516C471.692 108.516 465.548 106.918 461.05 103.722C456.576 100.502 454.019 96.193 453.38 90.7953L470.532 90.3692C470.911 92.3578 471.893 93.873 473.479 94.9146C475.066 95.9563 477.09 96.4771 479.552 96.4771C481.777 96.4771 483.588 96.0628 484.985 95.2342C486.382 94.4056 487.092 93.3048 487.116 91.9317C487.092 90.7006 486.548 89.7181 485.482 88.9842C484.417 88.2267 482.748 87.6348 480.475 87.2087L470.958 85.3976C465.489 84.4033 461.417 82.5685 458.742 79.8933C456.067 77.1945 454.741 73.7617 454.765 69.595C454.741 65.9492 455.712 62.836 457.677 60.2555C459.642 57.6514 462.435 55.6627 466.057 54.2896C469.68 52.9165 473.953 52.23 478.877 52.23C486.263 52.23 492.087 53.7806 496.349 56.882C500.61 59.9596 502.966 64.1973 503.415 69.595Z" fill="#191B41"/>
<path d="M412.751 108.267C408.727 108.267 405.069 107.226 401.778 105.142C398.488 103.059 395.86 99.934 393.895 95.7673C391.93 91.6006 390.947 86.4278 390.947 80.2488C390.947 73.8331 391.965 68.5538 394.001 64.4108C396.037 60.2678 398.701 57.202 401.991 55.2133C405.306 53.2247 408.869 52.2304 412.68 52.2304C415.545 52.2304 417.995 52.7275 420.031 53.7219C422.067 54.6925 423.748 55.9472 425.074 57.4861C426.399 59.0249 427.406 60.6229 428.092 62.2801H428.447V34.7588H445.812V107.486H428.625V98.6437H428.092C427.358 100.325 426.317 101.899 424.967 103.367C423.618 104.834 421.925 106.018 419.889 106.918C417.877 107.818 415.497 108.267 412.751 108.267ZM418.788 94.7375C420.895 94.7375 422.694 94.1456 424.186 92.9619C425.677 91.7545 426.826 90.0618 427.63 87.8838C428.435 85.7058 428.838 83.1489 428.838 80.2133C428.838 77.2304 428.435 74.6617 427.63 72.5074C426.849 70.353 425.701 68.6958 424.186 67.5358C422.694 66.3757 420.895 65.7957 418.788 65.7957C416.634 65.7957 414.811 66.3876 413.319 67.5713C411.828 68.755 410.692 70.424 409.91 72.5784C409.153 74.7327 408.774 77.2777 408.774 80.2133C408.774 83.1489 409.165 85.7058 409.946 87.8838C410.727 90.0618 411.852 91.7545 413.319 92.9619C414.811 94.1456 416.634 94.7375 418.788 94.7375Z" fill="#191B41"/>
<path d="M347.815 76.3777V107.486H330.45V52.9402H346.963V62.9544H347.567C348.774 59.6163 350.834 57.0003 353.746 55.1064C356.658 53.1888 360.126 52.23 364.15 52.23C367.986 52.23 371.312 53.0941 374.129 54.8223C376.97 56.5269 379.172 58.918 380.734 61.9956C382.32 65.0496 383.102 68.6244 383.078 72.72V107.486H365.713V76.1291C365.737 73.0988 364.967 70.7314 363.405 69.0269C361.866 67.3223 359.723 66.47 356.977 66.47C355.154 66.47 353.544 66.8725 352.148 67.6774C350.775 68.4587 349.709 69.5832 348.952 71.051C348.218 72.5188 347.839 74.2944 347.815 76.3777Z" fill="#191B41"/>
<path d="M303.032 107.486V52.9403H320.397V107.486H303.032ZM311.733 46.5838C309.294 46.5838 307.199 45.7789 305.447 44.169C303.695 42.5355 302.819 40.5705 302.819 38.2741C302.819 36.0014 303.695 34.0601 305.447 32.4503C307.199 30.8168 309.294 30 311.733 30C314.195 30 316.29 30.8168 318.018 32.4503C319.77 34.0601 320.646 36.0014 320.646 38.2741C320.646 40.5705 319.77 42.5355 318.018 44.169C316.29 45.7789 314.195 46.5838 311.733 46.5838Z" fill="#191B41"/>
<path d="M211.454 107.486V52.9402H227.967V62.9544H228.571C229.707 59.64 231.625 57.024 234.323 55.1064C237.022 53.1888 240.242 52.23 243.983 52.23C247.77 52.23 251.014 53.2006 253.713 55.1419C256.411 57.0832 258.128 59.6874 258.862 62.9544H259.43C260.448 59.711 262.437 57.1187 265.396 55.1774C268.355 53.2125 271.847 52.23 275.872 52.23C281.033 52.23 285.223 53.8872 288.443 57.2016C291.662 60.4923 293.272 65.0141 293.272 70.7669V107.486H275.907V74.7442C275.907 72.0216 275.209 69.9501 273.812 68.5297C272.415 67.0856 270.604 66.3635 268.379 66.3635C265.988 66.3635 264.106 67.1448 262.733 68.7073C261.383 70.2461 260.708 72.3176 260.708 74.9217V107.486H244.018V74.5666C244.018 72.0335 243.331 70.033 241.958 68.5652C240.585 67.0974 238.774 66.3635 236.525 66.3635C235.01 66.3635 233.672 66.7305 232.512 67.4644C231.352 68.1746 230.441 69.1926 229.778 70.5183C229.139 71.8441 228.819 73.4066 228.819 75.2058V107.486H211.454Z" fill="#191B41"/>
<path d="M205.796 52.9404L187.082 107.486H167.196L148.517 52.9404H166.805L176.855 90.5115H177.423L187.508 52.9404H205.796Z" fill="#191B41"/>
<path d="M120.592 108.516C114.887 108.516 109.963 107.391 105.82 105.142C101.7 102.869 98.5279 99.6377 96.3026 95.4473C94.1009 91.2333 93 86.2262 93 80.426C93 74.7915 94.1127 69.8673 96.3381 65.6533C98.5634 61.4156 101.7 58.1249 105.749 55.7811C109.797 53.4137 114.567 52.23 120.06 52.23C123.942 52.23 127.493 52.8337 130.713 54.0411C133.933 55.2484 136.714 57.0358 139.058 59.4033C141.402 61.7707 143.225 64.6945 144.527 68.1746C145.829 71.631 146.48 75.5965 146.48 80.0709V84.4033H99.0724V74.318H130.322C130.299 72.4715 129.861 70.8261 129.009 69.382C128.156 67.9378 126.984 66.8133 125.493 66.0084C124.025 65.1798 122.332 64.7655 120.415 64.7655C118.473 64.7655 116.733 65.2035 115.195 66.0794C113.656 66.9317 112.437 68.1036 111.537 69.595C110.637 71.0628 110.164 72.7319 110.116 74.6021V84.8649C110.116 87.0903 110.554 89.0434 111.43 90.7243C112.306 92.3815 113.549 93.6717 115.159 94.595C116.769 95.5183 118.687 95.98 120.912 95.98C122.451 95.98 123.848 95.7669 125.102 95.3408C126.357 94.9146 127.434 94.2873 128.334 93.4587C129.233 92.6301 129.908 91.6121 130.358 90.4047L146.303 90.8663C145.64 94.4412 144.184 97.5543 141.935 100.206C139.709 102.834 136.786 104.882 133.163 106.349C129.541 107.793 125.351 108.516 120.592 108.516Z" fill="#191B41"/>
<path d="M32.1421 1.54972e-05L18 14.1422L32.1421 28.2843L46.2843 14.1422L32.1421 1.54972e-05Z" fill="#DDAB07"/>
<path d="M65.1421 1.54972e-05L51 14.1422L65.1421 28.2843L79.2843 14.1422L65.1421 1.54972e-05Z" fill="#DDAB07"/>
</svg>
